<?xml version="1.0" encoding="UTF-8"?>
<svg id="Layer_1" data-name="Layer 1" xmlns="http://www.w3.org/2000/svg" viewBox="0 0 48 48">
  <defs>
    <style>
      .cls-1 {
        fill: #ff3d00;
      }

      .cls-2 {
        fill: #ffc107;
      }

      .cls-3 {
        fill: #1976d2;
      }

      .cls-4 {
        fill: #4caf50;
      }
    </style>
  </defs>
  <path class="cls-2" d="m43.61,20.08h-1.61v-.08h-18v8h11.3c-1.65,4.66-6.08,8-11.3,8-6.63,0-12-5.37-12-12s5.37-12,12-12c3.06,0,5.84,1.15,7.96,3.04l5.66-5.66c-3.57-3.33-8.35-5.38-13.62-5.38C12.95,4,4,12.95,4,24s8.95,20,20,20,20-8.96,20-20c0-1.34-.14-2.65-.39-3.92Z"/>
  <path class="cls-1" d="m6.31,14.69l6.57,4.82c1.78-4.4,6.08-7.51,11.12-7.51,3.06,0,5.84,1.15,7.96,3.04l5.66-5.66c-3.57-3.33-8.35-5.38-13.62-5.38-7.68,0-14.34,4.34-17.69,10.69Z"/>
  <path class="cls-4" d="m24,44c5.17,0,9.86-1.98,13.41-5.19l-6.19-5.24c-2.01,1.52-4.5,2.43-7.22,2.43-5.2,0-9.62-3.32-11.28-7.95l-6.52,5.03c3.31,6.48,10.03,10.92,17.8,10.92Z"/>
  <path class="cls-3" d="m43.61,20.08h-1.61v-.08h-18v8h11.3c-.79,2.24-2.23,4.17-4.09,5.57,0,0,0,0,0,0l6.19,5.24c-.44.4,6.59-4.81,6.59-14.81,0-1.34-.14-2.65-.39-3.92Z"/>
</svg>